<svg width="1009" height="72" viewBox="0 0 1009 72" fill="none" xmlns="http://www.w3.org/2000/svg">
<path d="M29.497 1.52112H0V70.4789H13.7314V41.5775H29.497C40.1769 41.5775 51.3654 34.4789 51.3654 21.2958C51.3654 8.11267 40.1769 1.52112 29.497 1.52112ZM13.7314 13.6901H27.4627C31.5313 13.6901 36.6169 15.7183 36.6169 21.8028C36.6169 27.8873 31.5313 29.9155 27.4627 29.9155H13.7314V13.6901Z" fill="#E52C1E"/>
<path d="M119.513 0C101.713 0 82.896 13.1831 82.896 36C82.896 58.3099 101.713 72 119.513 72C137.313 72 156.13 58.8169 156.13 36C156.13 13.1831 137.821 0 119.513 0ZM119.513 59.3239C108.324 59.3239 96.6274 51.2113 96.6274 36C96.6274 20.7887 108.324 12.6761 119.513 12.6761C130.701 12.6761 141.89 21.2958 141.89 36C142.399 50.1972 130.701 59.3239 119.513 59.3239Z" fill="#E52C1E"/>
<path d="M256.318 1.52112L238.518 36C236.484 40.5634 233.941 45.1268 232.415 49.1831C230.89 45.6338 228.855 41.5775 225.804 36L208.004 1.52112H198.85L192.747 70.4789H205.461L208.513 37.0141C208.513 35.493 208.513 33.4648 209.021 31.9437C210.547 34.9859 212.073 38.0282 213.09 40.5634L228.855 70.9859H234.958L250.724 40.0563C251.741 38.5352 253.267 34.9859 254.792 31.4366C254.792 33.9718 255.301 36.507 255.301 39.0422L258.352 70.4789H271.575L265.472 1.52112H256.318Z" fill="#E52C1E"/>
<path d="M451.609 34.4789V56.7887C448.557 58.3099 444.489 59.3239 439.911 59.3239C428.214 59.3239 415.5 52.2254 415.5 36C415.5 19.7746 428.214 12.6761 439.911 12.6761C446.014 12.6761 452.117 14.7042 457.203 17.7465L459.746 19.2676L462.288 6.59155L461.271 6.08451C455.168 2.02817 447.54 0 438.386 0C420.586 0 401.26 12.6761 401.26 36C401.26 59.3239 420.586 72 438.894 72C449.574 72 457.711 69.4648 463.814 64.3944L464.323 63.8873V34.4789H451.609Z" fill="#E52C1E"/>
<path d="M622.997 0.50708L593.5 70.4789H607.232L614.352 53.7465H637.237L644.357 70.4789H658.597L629.1 0.50708H622.997ZM632.152 41.5775H619.438L625.032 28.3944C625.54 27.3803 625.54 26.8733 626.049 25.8592C626.557 26.8733 626.557 27.8874 627.066 28.3944L632.152 41.5775Z" fill="#E52C1E"/>
<path d="M742.001 33.9718C742.001 37.0141 742.001 40.5634 742.001 44.1127C738.949 40.5634 735.389 36.507 732.338 33.4648L702.841 1.52112H693.178V70.4789H706.91V36C706.91 32.4507 706.91 28.9014 706.91 24.8451C711.487 29.9155 715.555 34.4789 718.607 38.0282L749.629 72H755.224V1.52112H741.492V33.9718H742.001Z" fill="#E52C1E"/>
<path d="M819.812 0.50708L790.315 70.4789H804.555L811.675 53.7465H834.561L841.681 70.4789H855.921L826.424 0.50708H819.812ZM829.475 41.5775H816.761L821.847 28.3944C822.355 27.3803 822.355 26.8733 822.864 25.8592C823.372 26.8733 823.372 27.8874 823.881 28.3944L829.475 41.5775Z" fill="#E52C1E"/>
<path d="M876.263 13.6901H897.623V70.4789H911.354V13.6901H932.205V1.52112H876.263V13.6901Z" fill="#E52C1E"/>
<path d="M980.012 58.3099V42.0845H1001.37V29.4084H980.012V13.6901H1005.44V1.52112H966.28V70.4789H1009V58.3099H980.012Z" fill="#E52C1E"/>
<path d="M368.203 1.52112H309.718V13.6901H368.203V1.52112Z" fill="#E52C1E"/>
<path d="M368.203 29.4084H309.718V41.5775H368.203V29.4084Z" fill="#E52C1E"/>
<path d="M368.203 58.3098H309.718V70.4788H368.203V58.3098Z" fill="#E52C1E"/>
<path d="M540.609 40.5633C548.746 38.0281 555.357 31.9436 555.357 21.2957C555.357 8.11263 544.677 1.01404 533.489 1.01404H503.992V69.9718H517.723V41.5774H525.352L546.203 69.9718H562.477L540.609 40.5633ZM517.723 13.6901H531.963C536.032 13.6901 541.117 15.7183 541.117 21.8028C541.117 27.8873 536.54 29.9154 531.963 29.9154H517.723V13.6901Z" fill="#E52C1E"/>
</svg>
